Coordinates
version=1
nRows=11
nColumns=40
inDegrees=yes

Units are S.I. units (second, meters, Newtons, ...)
Angles are in degrees.

endheader
time	pelvis_tilt	pelvis_list	pelvis_rotation	pelvis_tx	pelvis_ty	pelvis_tz	hip_flexion_r	hip_adduction_r	hip_rotation_r	knee_angle_r	knee_angle_r_beta	ankle_angle_r	subtalar_angle_r	mtp_angle_r	hip_flexion_l	hip_adduction_l	hip_rotation_l	knee_angle_l	knee_angle_l_beta	ankle_angle_l	subtalar_angle_l	mtp_angle_l	lumbar_extension	lumbar_bending	lumbar_rotation	arm_flex_r	arm_add_r	arm_rot_r	elbow_flex_r	pro_sup_r	wrist_flex_r	wrist_dev_r	arm_flex_l	arm_add_l	arm_rot_l	elbow_flex_l	pro_sup_l	wrist_flex_l	wrist_dev_l
     14.98250000	     -4.91608647	     -6.33338531	      2.86095372	      1.00603419	      0.93029519	      0.49726264	      7.68851625	      4.89956794	    -17.29732780	     10.29063986	     10.29063986	      9.47502072	      3.66588107	     -5.52748528	     39.59362233	    -11.28612680	      4.19172256	     56.96301433	     56.96301433	     10.51776606	    -18.73561314	     14.75828398	    -12.26057040	      6.93591190	      3.73572504	     30.54858080	    -17.80301111	     -1.38876478	     43.31571466	     45.79459469	      0.00000000	      0.00000000	      3.12879376	     -7.88930228	      1.16983267	     31.91249613	     46.86334084	      0.00000000	      0.00000000
     14.99385714	     -5.01194581	     -6.17583604	      3.01320614	      1.00462701	      0.93003883	      0.49730625	      7.23494293	      4.79623793	    -17.20385247	     10.12113975	     10.12113975	      9.83345610	      3.55491462	     -5.54577834	     40.07297813	    -10.77949963	      4.05589913	     53.83552995	     53.83552995	     10.44585419	    -18.60137477	     14.96052424	    -12.29244035	      6.69280877	      3.91310275	     32.48164402	    -18.04861998	     -1.36264284	     44.30561989	     45.76655115	      0.00000000	      0.00000000	      2.01787748	     -7.78387294	      1.14805973	     29.99834036	     46.84020973	      0.00000000	      0.00000000
     15.00521429	     -5.13553264	     -6.08040364	      3.15250255	      1.00339113	      0.92963384	      0.49726812	      6.78866798	      4.75746631	    -17.12975097	      9.92930516	      9.92930516	     10.18009300	      3.48753942	     -5.58271154	     40.43366078	    -10.28324763	      4.07346192	     50.55958317	     50.55958317	     10.43225753	    -18.28491711	     15.03485367	    -12.26738999	      6.49301343	      3.93724582	     34.41002417	    -18.19431902	     -1.35824218	     45.46648448	     45.73352734	      0.00000000	      0.00000000	      0.81140409	     -7.71913814	      1.15695858	     28.27411878	     46.81425408	      0.00000000	      0.00000000
     15.01657143	     -5.23382547	     -6.07446203	      3.32190913	      1.00236265	      0.92913447	      0.49699913	      6.27130244	      4.80009729	    -17.17389578	      9.68747097	      9.68747097	     10.57516719	      3.60508590	     -5.49211784	     40.56577959	     -9.86513609	      4.17687222	     47.01234822	     47.01234822	      9.70601731	    -17.90544839	     13.03608339	    -12.22270047	      6.47089859	      4.12809023	     35.79973950	    -18.74146713	     -0.65185522	     47.66846458	     45.62077650	      0.00000000	      0.00000000	      0.78697787	     -7.28519387	      0.68542510	     23.56180323	     46.88281424	      0.00000000	      0.00000000
     15.02792857	     -5.38049395	     -5.97097047	      3.42394341	      1.00143746	      0.92852267	      0.49669405	      5.80800277	      4.74028532	    -17.08753429	      9.46413830	      9.46413830	     10.92474023	      3.57194123	     -5.56270853	     40.65348805	     -9.35862858	      4.32147918	     43.57217760	     43.57217760	      9.86611129	    -17.06980928	     13.22460570	    -12.14489339	      6.28609625	      4.23549486	     37.51332902	    -18.88189491	     -0.80517582	     48.84523612	     45.59422450	      0.00000000	      0.00000000	     -0.62344438	     -7.31825879	      0.61035472	     22.88506140	     46.86553312	      0.00000000	      0.00000000
     15.03928571	     -5.43878455	     -6.01855815	      3.58445007	      1.00082844	      0.92785061	      0.49626568	      5.15045176	      4.85667383	    -17.13875223	      9.07921471	      9.07921471	     11.25358452	      3.77719076	     -5.57377669	     40.56134051	     -8.97755006	      4.66106288	     40.15075611	     40.15075611	      9.79495730	    -16.12355624	     12.70914890	    -12.14563920	      6.33508447	      3.78912236	     39.06133444	    -18.52165517	     -0.80946504	     51.19492802	     45.51675351	      0.00000000	      0.00000000	     -2.25935235	     -7.38207469	      0.40359476	     21.98234903	     46.86316655	      0.00000000	      0.00000000
     15.05064286	     -5.52949358	     -5.94997675	      3.65555801	      1.00036711	      0.92716436	      0.49576501	      4.58322277	      4.82762729	    -17.06850788	      8.83836949	      8.83836949	     11.63090887	      3.83561852	     -5.64699591	     40.32508465	     -8.62232172	      4.72253817	     36.76151209	     36.76151209	      9.98147782	    -14.76501399	     12.77897316	    -12.04842387	      6.21954056	      3.91760304	     40.48473744	    -18.63302385	     -0.91144022	     52.51432765	     45.48155707	      0.00000000	      0.00000000	     -3.64704323	     -7.43672026	      0.32314678	     21.46365779	     46.84594715	      0.00000000	      0.00000000
     15.06200000	     -5.68589937	     -6.22167623	      3.73952353	      1.00005126	      0.92598873	      0.49528857	      4.16022744	      5.14123204	    -17.09044416	      8.72038910	      8.72038910	     11.97673682	      3.88643125	     -5.76790607	     40.29026115	     -8.56735166	      5.03011426	     33.79760071	     33.79760071	     10.22454740	    -13.53879076	     12.98236385	    -11.79881759	      6.48953405	      4.16011952	     41.92018797	    -18.95563961	     -1.08201038	     53.52902972	     45.46052420	      0.00000000	      0.00000000	     -5.03955470	     -7.44128543	      0.27171439	     21.00693542	     46.82512149	      0.00000000	      0.00000000
     15.07335714	     -5.63488587	     -6.05809213	      3.77375476	      1.00020765	      0.92536127	      0.49459800	      3.24314537	      5.04950669	    -17.00643945	      8.19740813	      8.19740813	     12.36974015	      4.15197147	     -5.73119019	     39.66523986	     -8.26005493	      4.74985328	     30.76495632	     30.76495632	     10.42070743	    -12.09993218	     13.09287204	    -11.86677276	      6.26759457	      3.70515784	     43.12083882	    -18.28510683	     -1.05197368	     55.76319194	     45.38601615	      0.00000000	      0.00000000	     -6.62213028	     -7.50343266	      0.19335116	     20.69655648	     46.79969082	      0.00000000	      0.00000000
     15.08471429	     -5.61172013	     -6.27515440	      3.81457099	      1.00060875	      0.92425248	      0.49395142	      2.40354264	      5.34379961	    -17.11264560	      7.77190167	      7.77190167	     12.89467575	      4.73953076	     -5.30131364	     39.29477825	     -8.32550974	      4.55826280	     28.38358204	     28.38358204	     10.34769974	    -10.89167309	     12.56137584	    -11.94046922	      6.49716433	      3.81257884	     43.12279800	    -18.63863834	     -1.05837882	     60.90787053	     45.21438703	      0.00000000	      0.00000000	     -8.76574435	     -7.66026707	     -0.22179691	     22.41227551	     46.77640843	      0.00000000	      0.00000000
     15.09607143	     -5.63632617	     -6.34944211	      3.79191588	      1.00110737	      0.92308414	      0.49316740	      1.72114508	      5.44528990	    -16.97480912	      7.56895577	      7.56895577	     13.32630054	      4.84764465	     -5.33002841	     38.84997862	     -8.27058919	      4.16476219	     26.27990677	     26.27990677	     10.36001316	    -10.05033277	     12.89508541	    -11.76989535	      6.56571380	      3.77331999	     44.20948324	    -18.35843288	     -1.14229695	     62.25423868	     45.17858440	      0.00000000	      0.00000000	    -10.14827848	     -7.65743524	     -0.21348857	     22.08931604	     46.73805586	      0.00000000	      0.00000000
